<svg version="1.1" id="Layer_1" xmlns="http://www.w3.org/2000/svg" xmlns:xlink="http://www.w3.org/1999/xlink" x="0px" y="0px"
	 width="100%" viewBox="0 0 500 500" enable-background="new 0 0 500 500" xml:space="preserve">
<path fill="#000000" opacity="1.000000" stroke="none" 
	d="
M237.000000,501.000000 
	C158.000015,501.000000 79.500038,501.000000 1.000042,501.000000 
	C1.000028,334.333405 1.000028,167.666779 1.000014,1.000132 
	C167.666565,1.000088 334.333130,1.000088 500.999756,1.000044 
	C500.999847,167.666519 500.999847,334.333038 500.999939,500.999786 
	C413.166656,501.000000 325.333344,501.000000 237.000000,501.000000 
M362.227509,251.234818 
	C361.482178,250.670593 360.499695,250.252197 360.043457,249.510208 
	C359.225128,248.179352 358.723114,246.653946 358.088928,245.209839 
	C357.631622,245.390121 357.174347,245.570419 356.717072,245.750702 
	C357.286987,247.762299 357.651733,249.865967 358.498749,251.753235 
	C359.066895,253.019226 360.318634,253.978455 361.264526,255.074905 
	C361.774963,253.661057 362.285431,252.247208 362.904114,250.726593 
	C362.904114,250.726593 363.030121,250.944534 363.030121,250.944534 
	C363.030121,250.944534 362.923950,250.759384 362.227509,251.234818 
M300.730957,252.804443 
	C297.520905,247.792038 301.925720,247.495514 305.946259,246.417938 
	C302.101562,244.519836 299.342468,245.110519 298.347809,247.753159 
	C297.654449,249.595352 298.194733,253.031357 299.537933,254.202454 
	C300.966583,255.448074 303.991699,254.862579 306.637878,255.105881 
	C306.482849,252.957031 306.381622,251.554001 306.209229,249.164246 
	C304.585083,250.166916 303.549622,250.806183 302.004364,252.161087 
	C301.865723,252.419067 301.727112,252.677063 300.730957,252.804443 
M224.306778,209.265488 
	C224.864777,209.830307 225.359680,210.801575 225.990158,210.899445 
	C236.771240,212.573120 240.328629,216.597656 240.372894,227.385269 
	C240.390366,231.644379 240.375748,235.903625 240.375748,240.260056 
	C245.329712,240.260056 249.584274,240.260056 254.364777,240.260056 
	C254.364777,231.969696 254.364777,223.908279 254.364777,215.581390 
	C264.012268,215.581390 273.144226,215.315414 282.253937,215.652145 
	C292.470917,216.029800 299.231354,221.718842 303.164215,230.895706 
	C304.463104,233.926559 305.327789,237.143524 306.388794,240.268738 
	C311.536804,240.268738 316.632355,240.268738 322.017120,240.268738 
	C321.881775,239.049744 321.874023,238.066681 321.653931,237.133728 
	C317.873291,221.109329 303.987122,209.562210 286.453461,209.119415 
	C265.977783,208.602295 245.479614,208.975815 224.134476,208.612717 
	C224.365540,208.019485 224.456238,207.305023 224.848389,206.850876 
	C232.894440,197.533081 240.864700,188.146042 249.088348,178.986771 
	C254.317642,173.162491 261.095093,170.261414 268.945343,169.892410 
	C269.976624,169.843933 270.992676,169.471741 272.015778,169.249466 
	C271.942566,168.951859 271.869385,168.654236 271.796204,168.356628 
	C256.978516,168.356628 242.160843,168.356628 227.343155,168.356628 
	C238.346069,172.786438 238.713562,174.268372 230.973663,183.986710 
	C217.084976,201.425537 203.174606,218.847107 189.283035,236.283615 
	C188.340942,237.466110 187.479919,238.713196 186.339493,240.257553 
	C191.974915,240.257553 196.727005,240.257553 202.092285,240.257553 
	C200.907150,238.709549 200.067764,237.613159 199.174683,236.446655 
	C206.888809,227.535294 214.482056,218.708817 222.181503,209.976013 
	C222.778961,209.298386 224.121414,209.277634 224.306778,209.265488 
M284.267273,306.242096 
	C295.446686,318.637848 306.626129,331.033600 317.805542,343.429352 
	C317.533539,343.848053 317.261505,344.266724 316.989502,344.685394 
	C311.923950,342.376678 306.702637,340.354706 301.823090,337.703644 
	C288.967285,330.718994 278.715118,320.539917 268.009583,310.720306 
	C257.208740,300.813324 251.787704,290.000885 254.158691,275.356598 
	C254.828079,271.222198 254.260941,266.887573 254.260941,262.834778 
	C249.226288,262.834778 244.963287,262.834778 240.104156,262.834778 
	C240.104156,268.643921 240.104156,274.126556 240.104156,280.447174 
	C234.843491,274.844116 230.350296,269.957581 225.721664,265.202911 
	C224.628235,264.079681 223.113922,262.706360 221.733688,262.637299 
	C215.987289,262.349701 210.218155,262.516327 203.600937,262.516327 
	C205.336746,264.468506 206.388290,265.705933 207.497162,266.889618 
	C217.518417,277.587219 227.625244,288.206573 237.497864,299.039459 
	C239.004761,300.692902 240.195724,303.303619 240.247406,305.501801 
	C240.517456,316.990204 240.445709,328.488983 240.348694,339.982941 
	C240.273193,348.929596 235.779327,353.781189 226.919662,354.878540 
	C225.955292,354.997955 225.019714,355.350037 224.070786,355.594208 
	C224.122208,355.875397 224.173615,356.156616 224.225037,356.437805 
	C239.631775,356.437805 255.038513,356.437805 270.445251,356.437805 
	C268.992798,355.072357 267.431549,354.944092 265.895966,354.671448 
	C260.529999,353.718842 255.780914,350.761139 255.244980,345.523987 
	C254.331955,336.601776 254.993469,327.518433 254.993469,317.810211 
	C257.345886,320.055878 259.313568,321.959076 261.307739,323.834137 
	C278.776550,340.259613 298.375031,351.925171 323.319336,352.006531 
	C324.905731,352.011688 326.709412,353.669098 328.032715,354.949768 
	C336.516083,363.160004 344.413818,372.048309 353.411255,379.638367 
	C369.270935,393.017303 387.694611,398.230621 408.355896,393.939667 
	C409.755280,393.649078 411.068176,392.942017 413.621552,391.973267 
	C406.206909,390.983826 400.250458,390.737579 394.584625,389.325409 
	C380.163666,385.731171 368.976196,376.544403 359.058655,366.186890 
	C334.988129,341.048370 311.440857,315.408813 287.705933,289.949554 
	C287.599091,289.834961 287.826691,289.408539 287.896729,289.133148 
	C303.302368,287.863892 317.550049,275.947540 319.523926,262.498505 
	C315.516541,262.498505 311.523804,262.305542 307.569336,262.609955 
	C306.296417,262.707947 304.548370,263.836212 303.997162,264.969543 
	C299.555878,274.101166 292.128387,279.249817 282.407928,280.917877 
	C276.704163,281.896637 270.829285,281.872009 265.033478,282.325531 
	C263.732819,282.427307 262.440918,282.640717 261.838440,282.716034 
	C269.276123,290.497803 276.542297,298.100128 284.267273,306.242096 
M189.917450,170.041489 
	C191.310165,169.853714 192.702896,169.665939 194.095612,169.478165 
	C194.024872,169.166336 193.954117,168.854523 193.883362,168.542694 
	C178.546555,168.542694 163.209732,168.542694 147.872910,168.542694 
	C148.274704,169.565887 148.687988,169.874115 149.127869,169.918472 
	C159.885178,171.003326 163.973785,175.513580 163.991653,186.383087 
	C164.003403,193.534103 163.993881,200.685150 163.993881,207.836182 
	C163.993881,218.594513 163.993866,229.352844 163.993866,240.161011 
	C168.870056,240.161011 173.268677,240.161011 177.882767,240.161011 
	C177.882767,221.708206 177.866669,203.588943 177.889694,185.469727 
	C177.900879,176.661850 180.749603,172.801361 189.917450,170.041489 
M163.993378,295.354492 
	C165.134293,307.299438 159.293320,313.658325 147.854385,315.480469 
	C163.229691,315.480469 178.604980,315.480469 193.980270,315.480469 
	C193.619476,314.387207 193.152069,313.985535 192.640656,313.918213 
	C181.402328,312.438385 177.895126,308.535217 177.885773,297.398468 
	C177.876144,285.946808 177.883636,274.495117 177.883636,262.775360 
	C173.113586,262.775360 168.701050,262.775360 163.993378,262.775360 
	C163.993378,273.460632 163.993378,283.924866 163.993378,295.354492 
M209.356598,254.974991 
	C210.181046,253.675476 211.005508,252.375946 211.829971,251.076431 
	C213.062958,252.327927 214.295944,253.579407 215.771332,255.076920 
	C215.771332,251.835007 215.771332,248.686432 215.771332,245.595963 
	C214.273743,246.946854 213.036194,248.063171 211.798660,249.179489 
	C210.871979,247.982590 209.945282,246.785690 207.979172,244.246262 
	C208.183899,248.657578 208.327988,251.762436 209.356598,254.974991 
M324.565094,254.740814 
	C326.739685,253.027008 326.961761,249.391876 325.271881,245.916214 
	C324.275146,246.949509 323.198944,248.065201 322.122742,249.180878 
	C321.032684,247.991257 319.942627,246.801620 318.595581,245.331543 
	C318.595581,248.734619 318.595581,251.841553 318.595581,255.079544 
	C320.009735,253.492599 321.086853,252.283859 322.164001,251.075150 
	C322.850739,252.047104 323.537476,253.019058 324.565094,254.740814 
M190.208069,252.093262 
	C190.822220,253.084946 191.317093,254.780930 192.077362,254.909653 
	C193.339859,255.123428 194.772827,254.330292 196.134003,253.961258 
	C195.504730,252.021622 194.875443,250.081985 194.261261,248.188843 
	C194.414917,248.155670 195.489166,247.923752 196.563400,247.691833 
	C196.556091,247.224442 196.548782,246.757065 196.541473,246.289673 
	C194.659332,246.289673 191.850510,245.496017 191.054108,246.425903 
	C187.447464,250.637085 193.433807,250.368652 194.942917,253.641739 
	C193.048721,252.931503 192.002808,252.539352 190.208069,252.093262 
M337.819244,254.947571 
	C340.417145,254.484329 343.015045,254.021072 346.058716,253.478348 
	C345.162994,251.359161 343.846588,248.244675 342.530182,245.130188 
	C342.082977,245.151108 341.635803,245.172012 341.188599,245.192932 
	C339.858704,248.292191 338.528778,251.391449 337.819244,254.947571 
M139.733658,253.035049 
	C141.386337,253.626205 143.039017,254.217361 145.448578,255.079254 
	C143.892776,251.440903 142.555771,248.314209 140.603302,243.748184 
	C138.616669,248.308487 137.254974,251.434235 135.893280,254.559998 
	C136.160019,254.752426 136.426773,254.944855 136.693527,255.137299 
	C137.446548,254.492920 138.199570,253.848557 139.733658,253.035049 
M283.571869,246.253372 
	C282.780548,246.250671 281.433746,245.979401 281.284851,246.287338 
	C279.972321,249.001740 278.872803,251.819153 278.080322,253.718918 
	C281.160583,253.892654 283.974365,254.051361 286.790985,254.210220 
	C285.911926,251.980469 284.905640,249.427994 283.571869,246.253372 
M262.024353,253.894318 
	C262.077637,253.399292 261.946411,252.742661 262.214874,252.436096 
	C263.686157,250.756195 265.255493,249.162186 266.791168,247.538666 
	C264.799438,246.632599 262.807709,245.726532 260.027283,244.461670 
	C260.027283,248.115540 259.861694,250.273697 260.110260,252.383026 
	C260.207245,253.206039 261.235992,253.919250 262.024353,253.894318 
M157.823593,248.876022 
	C159.590363,251.046478 161.357147,253.216934 163.626190,256.004395 
	C163.626190,251.802170 163.626190,248.684906 163.626190,245.567642 
	C163.318771,245.563919 163.011337,245.560196 162.703918,245.556473 
	C162.416473,247.023956 162.129044,248.491440 161.858322,249.873642 
	C160.432541,249.347702 159.171951,248.882690 157.823593,248.876022 
M126.014511,254.659592 
	C123.692192,251.650452 121.369881,248.641312 118.712784,245.198364 
	C118.712784,248.621078 118.712784,251.778885 118.712784,256.293976 
	C119.918022,254.400330 120.370049,253.690109 120.781860,253.043076 
	C122.301125,253.726059 123.822014,254.409760 126.014511,254.659592 
M228.072830,246.488678 
	C228.072830,249.316727 228.072830,252.144760 228.072830,254.972809 
	C228.479263,255.020844 228.885681,255.068878 229.292114,255.116913 
	C231.262939,252.006393 233.233780,248.895874 235.204605,245.785355 
	C234.971924,245.607574 234.739243,245.429810 234.506561,245.252045 
	C233.162689,246.386353 231.818802,247.520660 230.879333,248.313614 
	C229.975281,247.401321 229.179779,246.598557 228.072830,246.488678 
z"/>
<path fill="#FAFAFA" opacity="1.000000" stroke="none" 
	d="
M284.037842,305.972260 
	C276.542297,298.100128 269.276123,290.497803 261.838440,282.716034 
	C262.440918,282.640717 263.732819,282.427307 265.033478,282.325531 
	C270.829285,281.872009 276.704163,281.896637 282.407928,280.917877 
	C292.128387,279.249817 299.555878,274.101166 303.997162,264.969543 
	C304.548370,263.836212 306.296417,262.707947 307.569336,262.609955 
	C311.523804,262.305542 315.516541,262.498505 319.523926,262.498505 
	C317.550049,275.947540 303.302368,287.863892 287.896729,289.133148 
	C287.826691,289.408539 287.599091,289.834961 287.705933,289.949554 
	C311.440857,315.408813 334.988129,341.048370 359.058655,366.186890 
	C368.976196,376.544403 380.163666,385.731171 394.584625,389.325409 
	C400.250458,390.737579 406.206909,390.983826 413.621552,391.973267 
	C411.068176,392.942017 409.755280,393.649078 408.355896,393.939667 
	C387.694611,398.230621 369.270935,393.017303 353.411255,379.638367 
	C344.413818,372.048309 336.516083,363.160004 328.032715,354.949768 
	C326.709412,353.669098 324.905731,352.011688 323.319336,352.006531 
	C298.375031,351.925171 278.776550,340.259613 261.307739,323.834137 
	C259.313568,321.959076 257.345886,320.055878 254.993469,317.810211 
	C254.993469,327.518433 254.331955,336.601776 255.244980,345.523987 
	C255.780914,350.761139 260.529999,353.718842 265.895966,354.671448 
	C267.431549,354.944092 268.992798,355.072357 270.445251,356.437805 
	C255.038513,356.437805 239.631775,356.437805 224.225037,356.437805 
	C224.173615,356.156616 224.122208,355.875397 224.070786,355.594208 
	C225.019714,355.350037 225.955292,354.997955 226.919662,354.878540 
	C235.779327,353.781189 240.273193,348.929596 240.348694,339.982941 
	C240.445709,328.488983 240.517456,316.990204 240.247406,305.501801 
	C240.195724,303.303619 239.004761,300.692902 237.497864,299.039459 
	C227.625244,288.206573 217.518417,277.587219 207.497162,266.889618 
	C206.388290,265.705933 205.336746,264.468506 203.600937,262.516327 
	C210.218155,262.516327 215.987289,262.349701 221.733688,262.637299 
	C223.113922,262.706360 224.628235,264.079681 225.721664,265.202911 
	C230.350296,269.957581 234.843491,274.844116 240.104156,280.447174 
	C240.104156,274.126556 240.104156,268.643921 240.104156,262.834778 
	C244.963287,262.834778 249.226288,262.834778 254.260941,262.834778 
	C254.260941,266.887573 254.828079,271.222198 254.158691,275.356598 
	C251.787704,290.000885 257.208740,300.813324 268.009583,310.720306 
	C278.715118,320.539917 288.967285,330.718994 301.823090,337.703644 
	C306.702637,340.354706 311.923950,342.376678 316.989502,344.685394 
	C317.261505,344.266724 317.533539,343.848053 317.805542,343.429352 
	C306.626129,331.033600 295.446686,318.637848 284.037842,305.972260 
z"/>
<path fill="#FBFBFB" opacity="1.000000" stroke="none" 
	d="
M224.991211,208.962906 
	C245.479614,208.975815 265.977783,208.602295 286.453461,209.119415 
	C303.987122,209.562210 317.873291,221.109329 321.653931,237.133728 
	C321.874023,238.066681 321.881775,239.049744 322.017120,240.268738 
	C316.632355,240.268738 311.536804,240.268738 306.388794,240.268738 
	C305.327789,237.143524 304.463104,233.926559 303.164215,230.895706 
	C299.231354,221.718842 292.470917,216.029800 282.253937,215.652145 
	C273.144226,215.315414 264.012268,215.581390 254.364777,215.581390 
	C254.364777,223.908279 254.364777,231.969696 254.364777,240.260056 
	C249.584274,240.260056 245.329712,240.260056 240.375748,240.260056 
	C240.375748,235.903625 240.390366,231.644379 240.372894,227.385269 
	C240.328629,216.597656 236.771240,212.573120 225.990158,210.899445 
	C225.359680,210.801575 224.864777,209.830307 224.675507,209.097748 
	C225.044220,208.930008 224.991211,208.962906 224.991211,208.962906 
z"/>
<path fill="#FCFCFC" opacity="1.000000" stroke="none" 
	d="
M189.498062,170.080139 
	C180.749603,172.801361 177.900879,176.661850 177.889694,185.469727 
	C177.866669,203.588943 177.882767,221.708206 177.882767,240.161011 
	C173.268677,240.161011 168.870056,240.161011 163.993866,240.161011 
	C163.993866,229.352844 163.993881,218.594513 163.993881,207.836182 
	C163.993881,200.685150 164.003403,193.534103 163.991653,186.383087 
	C163.973785,175.513580 159.885178,171.003326 149.127869,169.918472 
	C148.687988,169.874115 148.274704,169.565887 147.872910,168.542694 
	C163.209732,168.542694 178.546555,168.542694 193.883362,168.542694 
	C193.954117,168.854523 194.024872,169.166336 194.095612,169.478165 
	C192.702896,169.665939 191.310165,169.853714 189.498062,170.080139 
z"/>
<path fill="#F8F8F8" opacity="1.000000" stroke="none" 
	d="
M224.562836,208.787811 
	C224.991211,208.962906 225.044220,208.930008 225.080902,208.940796 
	C224.121414,209.277634 222.778961,209.298386 222.181503,209.976013 
	C214.482056,218.708817 206.888809,227.535294 199.174683,236.446655 
	C200.067764,237.613159 200.907150,238.709549 202.092285,240.257553 
	C196.727005,240.257553 191.974915,240.257553 186.339493,240.257553 
	C187.479919,238.713196 188.340942,237.466110 189.283035,236.283615 
	C203.174606,218.847107 217.084976,201.425537 230.973663,183.986710 
	C238.713562,174.268372 238.346069,172.786438 227.343155,168.356628 
	C242.160843,168.356628 256.978516,168.356628 271.796204,168.356628 
	C271.869385,168.654236 271.942566,168.951859 272.015778,169.249466 
	C270.992676,169.471741 269.976624,169.843933 268.945343,169.892410 
	C261.095093,170.261414 254.317642,173.162491 249.088348,178.986771 
	C240.864700,188.146042 232.894440,197.533081 224.848389,206.850876 
	C224.456238,207.305023 224.365540,208.019485 224.562836,208.787811 
z"/>
<path fill="#FBFBFB" opacity="1.000000" stroke="none" 
	d="
M163.993378,294.871796 
	C163.993378,283.924866 163.993378,273.460632 163.993378,262.775360 
	C168.701050,262.775360 173.113586,262.775360 177.883636,262.775360 
	C177.883636,274.495117 177.876144,285.946808 177.885773,297.398468 
	C177.895126,308.535217 181.402328,312.438385 192.640656,313.918213 
	C193.152069,313.985535 193.619476,314.387207 193.980270,315.480469 
	C178.604980,315.480469 163.229691,315.480469 147.854385,315.480469 
	C159.293320,313.658325 165.134293,307.299438 163.993378,294.871796 
z"/>
<path fill="#CECECE" opacity="1.000000" stroke="none" 
	d="
M302.514130,251.445450 
	C303.549622,250.806183 304.585083,250.166916 306.209229,249.164246 
	C306.381622,251.554001 306.482849,252.957031 306.637878,255.105881 
	C303.991699,254.862579 300.966583,255.448074 299.537933,254.202454 
	C298.194733,253.031357 297.654449,249.595352 298.347809,247.753159 
	C299.342468,245.110519 302.101562,244.519836 305.946259,246.417938 
	C301.925720,247.495514 297.520905,247.792038 301.458832,252.980347 
	C302.783478,253.019867 303.380219,252.883484 304.573395,252.610794 
	C303.545471,252.029099 303.029785,251.737274 302.514130,251.445450 
z"/>
<path fill="#D6D6D6" opacity="1.000000" stroke="none" 
	d="
M208.914337,254.921143 
	C208.327988,251.762436 208.183899,248.657578 207.979172,244.246262 
	C209.945282,246.785690 210.871979,247.982590 211.798645,249.179474 
	C213.036194,248.063171 214.273743,246.946854 215.771332,245.595963 
	C215.771332,248.686432 215.771332,251.835007 215.771332,255.076920 
	C214.295944,253.579407 213.062958,252.327927 211.829971,251.076431 
	C211.005508,252.375946 210.181046,253.675476 208.914337,254.921143 
z"/>
<path fill="#D6D6D6" opacity="1.000000" stroke="none" 
	d="
M324.394653,254.365906 
	C323.537476,253.019058 322.850739,252.047104 322.164001,251.075134 
	C321.086853,252.283859 320.009735,253.492599 318.595581,255.079544 
	C318.595581,251.841553 318.595581,248.734619 318.595581,245.331543 
	C319.942627,246.801620 321.032684,247.991257 322.122742,249.180893 
	C323.198944,248.065201 324.275146,246.949509 325.271881,245.916214 
	C326.961761,249.391876 326.739685,253.027008 324.394653,254.365906 
z"/>
<path fill="#D4D4D4" opacity="1.000000" stroke="none" 
	d="
M190.582489,252.120239 
	C192.002808,252.539352 193.048721,252.931503 194.942917,253.641739 
	C193.433807,250.368652 187.447464,250.637085 191.054108,246.425903 
	C191.850510,245.496017 194.659332,246.289673 196.541473,246.289673 
	C196.548782,246.757065 196.556091,247.224442 196.563400,247.691833 
	C195.489166,247.923752 194.414917,248.155670 194.261261,248.188843 
	C194.875443,250.081985 195.504730,252.021622 196.134003,253.961258 
	C194.772827,254.330292 193.339859,255.123428 192.077362,254.909653 
	C191.317093,254.780930 190.822220,253.084946 190.582489,252.120239 
z"/>
<path fill="#CECECE" opacity="1.000000" stroke="none" 
	d="
M337.509064,254.719147 
	C338.528778,251.391449 339.858704,248.292191 341.188599,245.192932 
	C341.635803,245.172012 342.082977,245.151108 342.530182,245.130188 
	C343.846588,248.244675 345.162994,251.359161 346.058716,253.478348 
	C343.015045,254.021072 340.417145,254.484329 337.509064,254.719147 
z"/>
<path fill="#D6D6D6" opacity="1.000000" stroke="none" 
	d="
M139.343124,253.119629 
	C138.199570,253.848557 137.446548,254.492920 136.693527,255.137299 
	C136.426773,254.944855 136.160019,254.752426 135.893280,254.559998 
	C137.254974,251.434235 138.616669,248.308487 140.603302,243.748184 
	C142.555771,248.314209 143.892776,251.440903 145.448578,255.079254 
	C143.039017,254.217361 141.386337,253.626205 139.343124,253.119629 
z"/>
<path fill="#D4D4D4" opacity="1.000000" stroke="none" 
	d="
M283.735626,246.564438 
	C284.905640,249.427994 285.911926,251.980469 286.790985,254.210220 
	C283.974365,254.051361 281.160583,253.892654 278.080322,253.718918 
	C278.872803,251.819153 279.972321,249.001740 281.284851,246.287338 
	C281.433746,245.979401 282.780548,246.250671 283.735626,246.564438 
z"/>
<path fill="#DBDBDB" opacity="1.000000" stroke="none" 
	d="
M261.932373,254.288391 
	C261.235992,253.919250 260.207245,253.206039 260.110260,252.383026 
	C259.861694,250.273697 260.027283,248.115540 260.027283,244.461670 
	C262.807709,245.726532 264.799438,246.632599 266.791168,247.538666 
	C265.255493,249.162186 263.686157,250.756195 262.214874,252.436096 
	C261.946411,252.742661 262.077637,253.399292 261.932373,254.288391 
z"/>
<path fill="#D4D4D4" opacity="1.000000" stroke="none" 
	d="
M157.867477,248.646851 
	C159.171951,248.882690 160.432541,249.347702 161.858322,249.873642 
	C162.129044,248.491440 162.416473,247.023956 162.703918,245.556473 
	C163.011337,245.560196 163.318771,245.563919 163.626190,245.567642 
	C163.626190,248.684906 163.626190,251.802170 163.626190,256.004395 
	C161.357147,253.216934 159.590363,251.046478 157.867477,248.646851 
z"/>
<path fill="#CCCCCC" opacity="1.000000" stroke="none" 
	d="
M125.678711,254.876526 
	C123.822014,254.409760 122.301125,253.726059 120.781860,253.043076 
	C120.370049,253.690109 119.918022,254.400330 118.712784,256.293976 
	C118.712784,251.778885 118.712784,248.621078 118.712784,245.198364 
	C121.369881,248.641312 123.692192,251.650452 125.678711,254.876526 
z"/>
<path fill="#DEDEDE" opacity="1.000000" stroke="none" 
	d="
M228.228546,246.142242 
	C229.179779,246.598557 229.975281,247.401321 230.879333,248.313614 
	C231.818802,247.520660 233.162689,246.386353 234.506561,245.252045 
	C234.739243,245.429810 234.971924,245.607574 235.204605,245.785355 
	C233.233780,248.895874 231.262939,252.006393 229.292114,255.116913 
	C228.885681,255.068878 228.479263,255.020844 228.072830,254.972809 
	C228.072830,252.144760 228.072830,249.316727 228.228546,246.142242 
z"/>
<path fill="#C6C6C6" opacity="1.000000" stroke="none" 
	d="
M362.795898,250.833374 
	C362.285431,252.247208 361.774963,253.661057 361.264526,255.074921 
	C360.318634,253.978455 359.066895,253.019226 358.498749,251.753235 
	C357.651733,249.865967 357.286987,247.762299 356.717072,245.750702 
	C357.174347,245.570419 357.631622,245.390121 358.088928,245.209839 
	C358.723114,246.653946 359.225128,248.179352 360.043457,249.510208 
	C360.499695,250.252197 361.482178,250.670593 362.554047,251.033478 
	C362.880585,250.832123 362.795898,250.833374 362.795898,250.833374 
z"/>
<path fill="#C6C6C6" opacity="1.000000" stroke="none" 
	d="
M362.902283,250.795746 
	C362.923950,250.759384 363.030121,250.944534 363.030121,250.944534 
	C363.030121,250.944534 362.904114,250.726593 362.850006,250.779984 
	C362.795898,250.833374 362.880585,250.832123 362.902283,250.795746 
z"/>
<path fill="#000000" opacity="1.000000" stroke="none" 
	d="
M302.259247,251.803268 
	C303.029785,251.737274 303.545471,252.029099 304.573395,252.610794 
	C303.380219,252.883484 302.783478,253.019867 301.887573,253.045654 
	C301.727112,252.677063 301.865723,252.419067 302.259247,251.803268 
z"/>
</svg>