<svg xmlns="http://www.w3.org/2000/svg" xml:space="preserve" width="2000" height="1500" data-id="lg_ktyzdRylOcIYQvwfos" data-version="1" viewBox="0 0 2000 1500"><path stroke="transparent" d="M0 0h2000v1500H0z"/><g data-padding="20"><g transform="translate(-1089.587 -811.914)scale(2.0315)"><rect width="448.284" height="448.284" x="304.09" y="85.816" fill="none" stroke="#fff" stroke-width="22.5" paint-order="stroke" rx="0" ry="0" transform="translate(400 400)scale(1.19)"/><rect width="362.424" height="282.5" x="447.384" y="227.6" fill="none" rx="0" ry="0" transform="translate(400.5 399.94)"/><path fill="#fff" stroke="#fff" stroke-width="7.32" d="M903.696 850.48h-36.25v-175h36.25v78.25l76.5-78.25h44.25l-85 83.25 89 91.75h-48.5l-76.25-81.25Zm197.25 0h-36.25v-175h85.5q17.75 0 31.37 6.88 13.63 6.87 21.38 19.12t7.75 28.25q0 16.75-9.38 29.5-9.37 12.75-24.87 19l38.75 72.25h-40.5l-34.25-67h-39.5Zm0-143.75v47h46q12.25 0 19.62-6.5 7.38-6.5 7.38-17t-7.38-17q-7.37-6.5-19.62-6.5Z" paint-order="stroke"/></g><path fill="transparent" stroke="transparent" stroke-width="2.111" d="M437.5 187.5h1125v1125h-1125z"/></g></svg>